<svg xmlns="http://www.w3.org/2000/svg" width="256" height="256" viewBox="0 0 100 100"><rect width="100" height="100" rx="50" fill="#000000"></rect><path fill="#fff" d="M14.09 44.71L12.36 57.06L10.31 57.06L5.73 47.79L5.69 47.79L5.69 48.89L4.55 57.06L2.92 57.06L4.65 44.71L7.36 44.71L11.37 53.09L11.43 53.09L11.41 52.23L12.46 44.71L14.09 44.71ZM17.09 43.61Q17.53 43.23 18.14 43.23L18.14 43.23Q18.73 43.23 19.07 43.59L19.07 43.59Q19.35 43.95 19.35 44.44L19.35 44.44Q19.35 44.80 19.20 45.15Q19.05 45.51 18.76 45.77L18.76 45.77Q18.29 46.13 17.72 46.13L17.72 46.13Q17.11 46.13 16.79 45.75L16.79 45.75Q16.48 45.43 16.48 44.90L16.48 44.90Q16.48 44.56 16.65 44.20Q16.81 43.85 17.09 43.61L17.09 43.61ZM18.78 47.56L17.45 57.06L14.93 57.06L16.26 47.56L18.78 47.56ZM20.99 47.56L23.02 47.56L23.25 48.32L23.30 48.32Q23.30 48.28 23.64 48.03Q23.97 47.79 24.58 47.58Q25.19 47.37 26.04 47.37L26.04 47.37Q27.33 47.37 27.99 47.97Q28.64 48.57 28.64 49.82L28.64 49.82Q28.64 50.18 28.59 50.62L28.59 50.62L27.69 57.06L25.17 57.06Q25.28 56.17 25.57 54.10Q25.85 52.04 26.04 50.83L26.04 50.83Q26.10 50.43 26.10 50.12L26.10 50.12Q26.10 49.46 25.82 49.20Q25.55 48.95 24.94 48.95L24.94 48.95Q24.33 48.95 23.88 49.19Q23.42 49.44 23.23 49.63L23.23 49.63L22.18 57.06L19.66 57.06L20.99 47.56ZM37.44 55.63Q37.44 55.71 37.02 56.13Q36.61 56.55 35.83 56.91Q35.05 57.27 33.93 57.27L33.93 57.27Q32.08 57.27 30.95 56.29Q29.82 55.31 29.82 53.35L29.82 53.35Q29.82 51.47 30.48 50.12Q31.13 48.77 32.29 48.07Q33.45 47.37 34.91 47.37L34.91 47.37Q36.40 47.37 37.25 48.13Q38.11 48.89 38.11 50.03L38.11 50.03Q38.11 51.91 36.43 52.48Q34.76 53.05 32.44 53.05L32.44 53.05Q32.42 53.32 32.42 53.89L32.42 53.89Q32.42 55.03 32.95 55.51Q33.47 55.99 34.42 55.99L34.42 55.99Q35.07 55.99 35.57 55.77Q36.07 55.54 36.38 55.26Q36.68 54.99 36.68 54.95L36.68 54.95L37.44 55.63ZM34.61 48.58Q33.81 48.58 33.26 49.44Q32.71 50.29 32.52 51.97L32.52 51.97Q33.51 51.97 34.21 51.82Q34.91 51.68 35.38 51.21Q35.84 50.73 35.84 49.78L35.84 49.78Q35.84 48.58 34.61 48.58L34.61 48.58ZM47.02 46.68Q46.92 46.63 46.58 46.43Q46.24 46.23 45.70 46.04Q45.16 45.85 44.57 45.85L44.57 45.85Q43.75 45.85 43.25 46.30Q42.74 46.76 42.74 47.58L42.74 47.58Q42.74 48.26 43.19 48.73Q43.63 49.19 44.55 49.78L44.55 49.78Q45.31 50.29 45.78 50.69Q46.26 51.09 46.59 51.70Q46.92 52.31 46.92 53.14L46.92 53.14Q46.92 54.44 46.28 55.37Q45.63 56.30 44.56 56.78Q43.48 57.27 42.23 57.27L42.23 57.27Q41.03 57.27 40.22 56.89Q39.40 56.51 38.97 56.06Q38.54 55.61 38.54 55.54L38.54 55.54L39.42 54.44Q39.42 54.49 39.76 54.86Q40.10 55.23 40.70 55.55Q41.30 55.86 42.12 55.86L42.12 55.86Q43.14 55.86 43.66 55.33Q44.19 54.80 44.19 53.98L44.19 53.98Q44.19 53.37 43.77 52.95Q43.35 52.54 42.48 51.99L42.48 51.99Q41.70 51.49 41.21 51.09Q40.73 50.69 40.38 50.07Q40.02 49.44 40.02 48.57L40.02 48.57Q40.02 47.33 40.62 46.42Q41.22 45.51 42.26 45.01Q43.29 44.52 44.59 44.52L44.59 44.52Q45.34 44.52 45.97 44.71Q46.60 44.90 47.02 45.14Q47.44 45.37 47.44 45.39L47.44 45.39L47.02 46.68ZM54.27 49.02L52.19 49.02L51.52 53.71Q51.42 54.32 51.42 54.91L51.42 54.91Q51.42 55.48 51.59 55.69Q51.75 55.90 52.13 55.90L52.13 55.90Q52.51 55.90 52.78 55.83Q53.06 55.77 53.13 55.73L53.13 55.73L53.12 56.81Q53.12 56.83 52.89 56.94Q52.66 57.06 52.22 57.16Q51.79 57.27 51.14 57.27L51.14 57.27Q49.98 57.27 49.42 56.78Q48.86 56.30 48.86 55.20L48.86 55.20Q48.86 54.82 48.92 54.36L48.92 54.36L49.66 49.02L48.75 49.02L48.92 47.88L49.89 47.63L51.56 44.40L52.83 44.40L52.39 47.56L54.48 47.56L54.27 49.02ZM62.79 57.06L60.75 57.06L60.51 56.22L60.47 56.22Q60.47 56.26 60.15 56.54Q59.82 56.81 59.22 57.04Q58.61 57.27 57.75 57.27L57.75 57.27Q55.15 57.27 55.15 54.82L55.15 54.82Q55.15 54.44 55.21 54.02L55.21 54.02L56.12 47.56L58.65 47.56L57.81 53.49Q57.73 53.96 57.73 54.42L57.73 54.42Q57.73 55.12 58.00 55.41Q58.27 55.69 58.82 55.69L58.82 55.69Q59.27 55.69 59.65 55.53Q60.03 55.37 60.27 55.20Q60.51 55.03 60.56 54.97L60.56 54.97L61.59 47.56L64.12 47.56L62.79 57.06ZM73.12 57.06L71.01 57.06L70.84 56.20L70.82 56.20Q70.82 56.26 70.56 56.53Q70.29 56.79 69.75 57.03Q69.21 57.27 68.39 57.27L68.39 57.27Q66.83 57.27 65.93 56.17Q65.03 55.06 65.03 53.26L65.03 53.26Q65.03 51.59 65.62 50.25Q66.21 48.91 67.27 48.14Q68.34 47.37 69.67 47.37L69.67 47.37Q70.41 47.37 70.88 47.53Q71.36 47.69 71.57 47.87Q71.79 48.05 71.79 48.09L71.79 48.09L71.85 48.09L72.57 42.88L75.14 42.73L73.12 57.06ZM69.17 55.79Q69.82 55.79 70.28 55.46Q70.75 55.14 70.88 54.93L70.88 54.93L71.66 49.44Q71.62 49.38 71.47 49.24Q71.32 49.10 71.00 48.95Q70.69 48.81 70.25 48.81L70.25 48.81Q68.98 48.81 68.33 50.04Q67.67 51.26 67.67 53.70L67.67 53.70Q67.67 54.82 68.04 55.30Q68.41 55.79 69.17 55.79L69.17 55.79ZM77.49 43.61Q77.93 43.23 78.54 43.23L78.54 43.23Q79.13 43.23 79.47 43.59L79.47 43.59Q79.75 43.95 79.75 44.44L79.75 44.44Q79.75 44.80 79.60 45.15Q79.45 45.51 79.16 45.77L79.16 45.77Q78.69 46.13 78.12 46.13L78.12 46.13Q77.51 46.13 77.19 45.75L77.19 45.75Q76.88 45.43 76.88 44.90L76.88 44.90Q76.88 44.56 77.05 44.20Q77.21 43.85 77.49 43.61L77.49 43.61ZM79.18 47.56L77.85 57.06L75.33 57.06L76.66 47.56L79.18 47.56ZM89.12 51.26Q89.12 53.07 88.47 54.43Q87.83 55.79 86.64 56.53Q85.45 57.27 83.90 57.27L83.90 57.27Q82.13 57.27 81.11 56.25Q80.10 55.23 80.10 53.35L80.10 53.35Q80.10 51.55 80.71 50.19Q81.33 48.83 82.50 48.09Q83.67 47.35 85.30 47.35L85.30 47.35Q87.09 47.35 88.10 48.37Q89.12 49.38 89.12 51.26L89.12 51.26ZM85.05 48.62Q83.93 48.62 83.33 49.96Q82.72 51.30 82.72 54.04L82.72 54.04Q82.72 56.01 84.16 56.01L84.16 56.01Q85.28 56.01 85.89 54.66Q86.50 53.32 86.50 50.58L86.50 50.58Q86.50 49.61 86.16 49.12Q85.81 48.62 85.05 48.62L85.05 48.62ZM90.47 54.93Q90.47 54.97 90.73 55.25Q90.98 55.54 91.41 55.78Q91.84 56.01 92.41 56.01L92.41 56.01Q93.19 56.01 93.60 55.60Q94.00 55.18 94.00 54.55L94.00 54.55Q94.00 54.06 93.68 53.76Q93.36 53.47 92.64 53.05L92.64 53.05Q92.03 52.71 91.65 52.42Q91.27 52.14 90.99 51.67Q90.72 51.21 90.72 50.54L90.72 50.54Q90.72 49.50 91.25 48.77Q91.78 48.05 92.65 47.70Q93.51 47.35 94.52 47.35L94.52 47.35Q95.12 47.35 95.69 47.53Q96.26 47.71 96.63 47.90Q96.99 48.09 97.08 48.15L97.08 48.15L96.68 49.42Q96.59 49.36 96.26 49.16Q95.92 48.96 95.46 48.77Q94.99 48.58 94.57 48.58L94.57 48.58Q93.93 48.58 93.56 48.92Q93.19 49.25 93.19 49.78L93.19 49.78Q93.19 50.29 93.56 50.63Q93.93 50.96 94.69 51.38L94.69 51.38Q95.35 51.76 95.76 52.05Q96.17 52.35 96.45 52.82Q96.74 53.30 96.74 53.96L96.74 53.96Q96.74 55.44 95.71 56.36Q94.69 57.27 92.71 57.27L92.71 57.27Q91.63 57.27 90.94 56.96Q90.26 56.66 89.94 56.33Q89.61 55.99 89.61 55.92L89.61 55.92L90.47 54.93Z"></path></svg>